<svg xmlns="http://www.w3.org/2000/svg" width="23" height="20" viewBox="0 0 23 20">
    <g fill="none" fill-rule="evenodd">
        <g fill="#9B9B9B">
            <path d="M9.834 18.547c-.793 0-1.437-.631-1.437-1.408 0-.775.644-1.407 1.437-1.407.792 0 1.436.632 1.436 1.407 0 .777-.644 1.408-1.436 1.408m0-3.74c-1.313 0-2.382 1.047-2.382 2.332 0 1.287 1.069 2.333 2.382 2.333 1.313 0 2.381-1.046 2.381-2.333 0-1.285-1.068-2.332-2.381-2.332M17.179 18.547c-.793 0-1.436-.631-1.436-1.408 0-.775.643-1.406 1.436-1.406.792 0 1.436.63 1.436 1.406 0 .777-.644 1.408-1.436 1.408m0-3.74c-1.313 0-2.382 1.047-2.382 2.332 0 1.287 1.07 2.333 2.382 2.333 1.313 0 2.381-1.046 2.381-2.333 0-1.285-1.068-2.332-2.381-2.332M22.045 5.455H6.406L4.804.328A.472.472 0 0 0 4.352 0H.472A.468.468 0 0 0 0 .463c0 .255.212.463.472.463h3.53l3.495 11.181a.472.472 0 0 0 .452.327h12.038c.26 0 .472-.207.472-.462a.468.468 0 0 0-.472-.463H8.298L7.643 9.41H21.25c.26 0 .473-.208.473-.463a.468.468 0 0 0-.473-.463H7.354L6.696 6.38h15.349c.26 0 .472-.206.472-.462a.468.468 0 0 0-.472-.463"/>
        </g>
    </g>
</svg>
