<svg xmlns="http://www.w3.org/2000/svg" width="58" height="63" viewBox="0 0 58 63"><path fill="#ddd" d="M51.71 29.28c3.01-4.14 2.06-10.23 1.72-11.89-1.27-1.13-6.09-4.99-11.14-4.47.36 3.23-.58 6.75-2.78 10.52l8.16-2.73-6.48 5.73c4.36-.04 7.9.9 10.52 2.84zm-10.46.3c.09.62.19 1.25.19 1.9 0 .66-.1 1.29-.2 1.91 3.36.02 6.09-.61 8.11-1.9-2.02-1.3-4.74-1.92-8.1-1.91zm12.17 16.01c.34-1.67 1.27-7.75-1.7-11.87-2.57 1.9-6.02 2.86-10.29 2.86h-.19l6.43 5.68-8.17-2.73c2.21 3.77 3.15 7.29 2.78 10.52 5.05.51 9.87-3.34 11.14-4.46zM36.79 21.87c1.72-2.94 2.53-5.63 2.41-8.05-2.15 1.1-4.07 3.14-5.75 6.09 1.23.47 2.34 1.14 3.34 1.96zm2.41 27.28c.12-2.42-.69-5.11-2.42-8.04-1 .81-2.11 1.48-3.33 1.95 1.67 2.95 3.6 4.99 5.75 6.09zM29 59.69c1.61-.54 7.35-2.78 9.43-7.42-2.98-1.3-5.56-3.87-7.72-7.66L29 53.04l-1.72-8.44c-2.15 3.8-4.74 6.37-7.72 7.67 2.08 4.64 7.83 6.88 9.44 7.42zM18.8 49.14c2.15-1.1 4.07-3.14 5.74-6.08a12.53 12.53 0 0 1-3.33-1.96c-1.72 2.94-2.53 5.63-2.41 8.04zm-3.09.9c-.36-3.22.58-6.75 2.78-10.51l-8.16 2.73 6.43-5.68h-.19c-4.27 0-7.71-.97-10.29-2.87-2.98 4.12-2.05 10.21-1.71 11.87 1.28 1.13 6.08 4.98 11.14 4.46zm1.05-16.65c-.1-.63-.2-1.25-.2-1.91 0-.65.1-1.28.2-1.9-3.35 0-6.08.62-8.1 1.9 2.02 1.29 4.74 1.91 8.1 1.91zM4.58 17.38c-.34 1.66-1.28 7.77 1.71 11.89 2.61-1.93 6.13-2.87 10.52-2.83l-6.48-5.73 8.16 2.72c-2.2-3.76-3.14-7.28-2.78-10.51-5.08-.51-9.87 3.33-11.13 4.46zm14.22-3.56c-.12 2.42.69 5.11 2.41 8.05a12.18 12.18 0 0 1 3.34-1.96c-1.68-2.95-3.6-4.99-5.75-6.09zm19.49 17.66A9.3 9.3 0 0 0 29 22.19a9.3 9.3 0 1 0 9.29 9.29zM29 3.28c-1.6.54-7.35 2.78-9.43 7.42 2.98 1.3 5.56 3.87 7.72 7.67L29 9.93l1.71 8.43c2.16-3.79 4.75-6.36 7.73-7.66-2.09-4.66-7.83-6.89-9.44-7.42zm27.38 12.88c.1.38 2.34 9.32-2.36 15.33 4.7 6 2.46 14.94 2.36 15.32l-.11.42-.31.3c-.26.26-5.92 5.75-12.73 5.75-.57 0-1.14-.05-1.72-.13-2.85 7.07-11.72 9.6-12.09 9.71l-.42.11-.42-.11c-.38-.11-9.25-2.64-12.1-9.71-.57.08-1.15.13-1.71.13-6.81 0-12.47-5.5-12.73-5.75l-.31-.3-.11-.42c-.1-.38-2.34-9.33 2.36-15.33-4.7-6-2.46-14.94-2.36-15.32l.11-.42.31-.31c.28-.27 6.91-6.66 14.45-5.61C19.33 2.75 28.2.22 28.58.11L29 0l.42.11c.38.11 9.24 2.63 12.09 9.71 7.53-1.07 14.17 5.35 14.45 5.62l.31.3z"/></svg>