<svg xmlns="http://www.w3.org/2000/svg" xmlns:xlink="http://www.w3.org/1999/xlink" width="64" height="60" viewBox="0 0 64 60">
    <defs>
        <path id="a" d="M13.431 13.118H.881V.569h12.55z"/>
    </defs>
    <g fill="none" fill-rule="evenodd">
        <path fill="#FFF" d="M31.213 43.218a2.708 2.708 0 0 1-2.064-.318 2.72 2.72 0 0 1-1.241-1.678L20.789 12.39 52.271 4.62 60.043 36.1l-28.83 7.117zm31.603-6.494l-8.383-33.95a1.276 1.276 0 0 0-1.539-.928L18.945 10.23a1.269 1.269 0 0 0-.93 1.538l7.426 30.066a5.228 5.228 0 0 0 2.395 3.243 5.253 5.253 0 0 0 3.988.61l30.063-7.423c.327-.081.61-.288.782-.577.175-.288.228-.634.147-.962z"/>
        <g transform="translate(15.882 46.295)">
            <mask id="b" fill="#fff">
                <use xlink:href="#a"/>
            </mask>
            <path fill="#FFF" d="M10.349 8.771a3.698 3.698 0 0 1-2.3 1.693c-.965.24-1.967.09-2.821-.427a3.69 3.69 0 0 1-1.693-2.3 3.703 3.703 0 0 1 .43-2.823A3.702 3.702 0 0 1 6.262 3.22a3.716 3.716 0 0 1 2.822.43 3.7 3.7 0 0 1 1.693 2.299c.24.967.086 1.97-.43 2.821m.05-7.297a6.234 6.234 0 0 0-4.745-.72 6.249 6.249 0 0 0-3.867 2.847 6.244 6.244 0 0 0-.72 4.747 6.232 6.232 0 0 0 2.849 3.865 6.225 6.225 0 0 0 4.745.718 6.225 6.225 0 0 0 3.865-2.845 6.231 6.231 0 0 0 .721-4.745 6.235 6.235 0 0 0-2.848-3.867" mask="url(#b)"/>
        </g>
        <path fill="#FFF" d="M20.144 43.597a1.273 1.273 0 0 0 1.234-1.581l-9.87-39.275a1.267 1.267 0 0 0-1.23-.96l-9.006-.016h-.001C.568 1.765 0 2.33 0 3.034c-.002.7.566 1.27 1.269 1.27l8.017.014 9.628 38.32c.145.575.662.96 1.23.96M59.781 42.898l-26.135 6.451a1.27 1.27 0 1 0 .61 2.469l26.136-6.453a1.272 1.272 0 0 0 .928-1.54c-.168-.679-.856-1.083-1.539-.927M46.95 21.328l-7.901-4.844a1.278 1.278 0 0 0-1.421.063c-.132.101-.245.226-.332.366 0 .002-.002.003-.003.005l-4.739 7.966a1.272 1.272 0 0 0 2.185 1.299l3.155-5.303 2.716 11a1.268 1.268 0 0 0 1.54.927 1.274 1.274 0 0 0 .93-1.538l-2.717-11 5.26 3.228a1.272 1.272 0 0 0 1.327-2.169"/>
    </g>
</svg>
