<svg xmlns="http://www.w3.org/2000/svg" width="17" height="16" viewBox="0 0 17 16">
    <g fill="none" fill-rule="evenodd">
        <path fill="#9B9B9B" d="M8.386 8.98a4.501 4.501 0 0 0 4.504-4.497C12.89 2 10.873 0 8.386 0 5.9 0 3.882 2.014 3.882 4.483a4.51 4.51 0 0 0 4.504 4.496zm0-7.808a3.323 3.323 0 0 1 3.316 3.31c0 1.821-1.492 3.311-3.316 3.311a3.323 3.323 0 0 1-3.316-3.31c0-1.82 1.492-3.31 3.316-3.31zM.594 16A.59.59 0 0 1 0 15.407c0-3.117 2.542-5.641 5.65-5.641h5.527c3.122 0 5.65 2.537 5.65 5.64a.59.59 0 0 1-.593.594H.594zm5.057-5.048a4.469 4.469 0 0 0-4.421 3.862h14.368a4.457 4.457 0 0 0-4.421-3.862H5.65z"/>
    </g>
</svg>
