<svg xmlns="http://www.w3.org/2000/svg" width="18" height="18" viewBox="0 0 18 18">
    <path fill="#9B9B9B" fill-rule="evenodd" d="M11.477 12.378l5.436 5.436c.124.124.28.186.45.186a.637.637 0 0 0 .45-1.087l-5.435-5.436a6.993 6.993 0 0 0 1.63-4.473A7.006 7.006 0 0 0 7.005 0C3.153 0 0 3.153 0 7.004c0 3.867 3.153 7.005 7.004 7.005a6.877 6.877 0 0 0 4.473-1.631zM7.004 1.274a5.737 5.737 0 0 1 5.731 5.73 5.727 5.727 0 0 1-5.73 5.731 5.737 5.737 0 0 1-5.731-5.73c0-3.153 2.578-5.731 5.73-5.731z"/>
</svg>
