<svg xmlns="http://www.w3.org/2000/svg" width="26" height="23" viewBox="0 0 26 23">
    <g fill="none" fill-rule="evenodd">
        <g fill="#FFF">
            <path d="M25.083 2.393h-4.654C20.026 1.026 18.75 0 17.274 0c-1.477 0-2.752 1.003-3.155 2.393H.917A.916.916 0 0 0 0 3.328c0 .524.403.934.917.934h13.18c.38 1.414 1.655 2.462 3.177 2.462 1.521 0 2.797-1.048 3.177-2.462h4.632c.514 0 .917-.41.917-.934-.022-.502-.425-.935-.917-.935zm-7.81 2.462a1.484 1.484 0 0 1-1.476-1.482c0-.82.649-1.481 1.454-1.481.806 0 1.455.66 1.455 1.481a1.433 1.433 0 0 1-1.432 1.482zM25.083 18.393h-4.654C20.026 17.026 18.75 16 17.274 16c-1.477 0-2.752 1.003-3.155 2.393H.917a.916.916 0 0 0-.917.935c0 .524.403.934.917.934h13.18c.38 1.414 1.655 2.462 3.177 2.462 1.521 0 2.797-1.048 3.177-2.462h4.632c.514 0 .917-.41.917-.934-.022-.502-.425-.935-.917-.935zm-7.81 2.462a1.484 1.484 0 0 1-1.476-1.482c0-.82.649-1.481 1.454-1.481.806 0 1.455.66 1.455 1.481a1.433 1.433 0 0 1-1.432 1.482zM.917 10.393h4.654C5.974 9.026 7.25 8 8.726 8c1.477 0 2.752 1.003 3.155 2.393h13.202c.514 0 .917.41.917.935a.916.916 0 0 1-.917.934h-13.18c-.38 1.414-1.655 2.462-3.177 2.462-1.521 0-2.797-1.048-3.177-2.462H.917A.916.916 0 0 1 0 11.328c.022-.502.425-.935.917-.935zm7.81 2.462c.805 0 1.476-.661 1.476-1.482 0-.82-.649-1.481-1.454-1.481-.806 0-1.455.66-1.455 1.481a1.433 1.433 0 0 0 1.432 1.482z"/>
        </g>
    </g>
</svg>
