<svg xmlns="http://www.w3.org/2000/svg" width="52" height="65" viewBox="0 0 52 65">
    <g fill="none" fill-rule="evenodd">
        <g fill="#FFF">
            <path d="M46.667 60.54H3.611a.947.947 0 0 1-.936-.936V3.61c0-.517.42-.936.936-.936h29.178v11.204c0 1.989 1.619 3.61 3.61 3.61h11.204v42.115a.96.96 0 0 1-.936.936zM35.463 4.565l10.25 10.248h-9.314a.936.936 0 0 1-.936-.934V4.565zM50.26 16.067a1.31 1.31 0 0 0-.071-.35c-.015-.044-.026-.087-.045-.128a1.326 1.326 0 0 0-.26-.384L35.071.392a1.278 1.278 0 0 0-.384-.26c-.041-.018-.084-.03-.127-.044a1.324 1.324 0 0 0-.35-.07C34.18.014 34.154 0 34.125 0H3.61C1.621 0 .001 1.62.001 3.61v55.994c0 1.99 1.62 3.61 3.61 3.61h43.056c1.99 0 3.61-1.62 3.61-3.61V16.152c0-.03-.015-.056-.016-.085z"/>
            <path d="M26.12 41.288c2.832 0 4.752-1.344 6.096-3.168l-1.704-.936c-.912 1.368-2.568 2.328-4.392 2.328-2.736 0-4.968-1.656-5.808-4.2h7.272v-1.248h-7.56a8.257 8.257 0 0 1 0-2.16h7.56v-1.248h-7.272c.864-2.52 3.072-4.152 5.808-4.152 1.824 0 3.48.984 4.392 2.328l1.68-.936c-1.272-1.8-3.24-3.168-6.072-3.168-3.84 0-6.984 2.328-7.944 5.928h-1.272v1.248h1.032c-.024.36-.048.744-.048 1.104 0 .36.024.72.048 1.056h-1.032v1.248h1.272c.936 3.648 4.08 5.976 7.944 5.976z"/>
        </g>
    </g>
</svg>
