<svg xmlns="http://www.w3.org/2000/svg" width="63" height="35" viewBox="0 0 63 35"><path fill="#fff" d="M16.38 34.4C4.78 34.4 0 25.4 0 17.2 0 8.8 4.78 0 16.38 0c6.91 0 12.2 4.7 14.95 10.4C34.18 4.7 39.47 0 46.38 0c11.7 0 16.38 8.9 16.38 17.2 0 8.3-4.68 17.2-16.38 17.2-6.91 0-12.2-4.7-15.05-10.4-2.75 5.7-8.04 10.4-14.95 10.4zm29.19-6.8c6 0 9.86-4.2 9.86-10.4S51.57 6.7 45.57 6.7c-5.29 0-9.05 5.1-10.99 10.5 1.94 5.4 5.7 10.4 10.99 10.4zm-28.28.1c5.29 0 8.95-5.1 10.99-10.5-2.04-5.4-5.7-10.5-10.99-10.5-6 0-9.97 4.3-9.97 10.5 0 6.1 3.97 10.5 9.97 10.5z"/></svg>