<svg xmlns="http://www.w3.org/2000/svg" width="60" height="55" viewBox="0 0 60 55">
    <g fill="none" fill-rule="evenodd">
        <path fill="#4A7FC1" fill-rule="nonzero" d="M22.007 35.707c1.27-9.335 5.64-13.483 5.679-13.537l-1.218-1.305c-.199.18-4.884 4.58-6.247 14.601-.08.581-.123 1.167-.127 1.753-1.221-3.733-2.968-4.819-5.41-5.237-2.914-.518-5.757 1.898-7.066 6.003-.778 2.431.333 3.315 1.064 3.904.582.461.849.67.53 1.795-1.126 3.964 2.707 7.168 2.874 7.303a.905.905 0 0 0 1.21-.06.89.89 0 0 0 .047-1.203c-1.725-2.027-.937-4.056-.245-5.848.355-.894.617-1.6.54-2.264l-.451-1.537c-.508-1.351-.49-1.564.22-1.92a1.239 1.239 0 0 1 1.313.114c.859.561 1.672 2.076 1.572 3.904-.163 2.927 2.236 6.163 7.138 9.626 3.475 2.452 5.288 2.95 5.367 2.97a.898.898 0 0 0 .89-.287c-1.267-1.377-6.342-7.207-7.407-14.02a13.551 13.551 0 0 1-.273-4.755z"/>
        <path fill="#4A7FC1" fill-rule="nonzero" d="M50.533 35.37a3.904 3.904 0 0 0-3.55-2.352l-2.016.245c-1.11.255-1.91.432-3.549-.778-3.237-2.412-5.441-.926-7.99.799l-.354.238c-1.747 1.174-2.418.95-3.745.496l-1.516-.45c-2.13-.483-3.105.66-3.765 2.246-.029.174-.06.337-.086.514-.2 1.644-.102 3.31.288 4.918v-.02c.07.33.195.847.323 1.241 0 .032.035.043.053.064a28.132 28.132 0 0 0 4.167 8.012 6.957 6.957 0 0 1 .476-3.623c.383-.851.919-1.419 1.44-1.518 1.775-.355 2.187-1.182 2.66-2.154.428-.935.998-1.797 1.689-2.559 2.243-2.547 3.148-2.444 5.37-1.454s2.84 1.029 4.01-.664l.88-1.185c1.42-1.774 3.965-.905 4.075-.87a.898.898 0 0 0 1.143-1.15l-.003.004z"/>
        <path fill="#D4574B" fill-rule="nonzero" d="M39.441 33.915a2.624 2.624 0 0 1-.617 0c-2.556-.49-4.476 1.594-6.034 3.265l-.5.54c-.59.62-1.392.517-2.642.294a6.415 6.415 0 0 0-2.41-.114c-1.004.21-1.86 1.679-2.555 3.474.062-1.11.22-2.213.472-3.296.777-2.608 1.136-3.023 2.247-2.772l1.334.401c1.463.497 2.84.97 5.324-.71l.355-.237c2.314-1.565 3.486-2.328 5.353-1.2a2.012 2.012 0 0 0-.327.355z"/>
        <path fill="#4A7FC1" fill-rule="nonzero" d="M40.737 6.61c.416.271.81.575 1.178.909l3.436-4.822-4.614 3.914zM42.98 18.9l5.345-.114-4.327-1.497a8.47 8.47 0 0 1-1 1.607l-.018.004zm6.772-6.033l-4.97.508c0 .138.043.266.043.404-.014.348-.05.694-.106 1.037l5.033-1.949zm-5.74-2.58l4.476-3.643-5.128 2.522c.252.354.476.726.67 1.115l-.017.007zM38.69 5.675L39.753.35l-2.697 4.933a9.78 9.78 0 0 1 1.657.397l-.024-.007zm-10.73 3.392a8.872 8.872 0 0 1 1.853-1.905l-2.918-3.61 1.065 5.515zm4.461-3.342a9.67 9.67 0 0 1 1.715-.43L33.283.582l-.863 5.142z"/>
        <path fill="#D4574B" fill-rule="nonzero" d="M24.846 21.485c-1.065-1.997-.802-4.9.639-6.905 3.148-4.382 8.696-4.58 10.58-4.517-.638 1.342-2.615 4.79-7.662 8.871l.642.784a38.439 38.439 0 0 0 4.163-3.874c3.88-.48 6.432-.153 7.504.042-2.07 5.238-5.654 7.934-11.028 8.07-2.864.08-4.21-1.3-4.838-2.47z"/>
        <path fill="#D4574B" fill-rule="nonzero" d="M36.229 11.873a24.594 24.594 0 0 1-2.101 2.902 30.778 30.778 0 0 1 4.763-.085 10.82 10.82 0 0 0 1.136-3.058 39.49 39.49 0 0 0-3.798.24z"/>
        <path stroke="#4A7FC1" stroke-width="1.09" d="M24.807 18.853s-1.878-4.301 2.776-7.874c4.653-3.574 8.71-2.52 8.71-2.52.151.598.076 1.23-.213 1.775a19.672 19.672 0 0 1 4.174-.22 9.256 9.256 0 0 1-1.136 3.055M32.516 14.832s5.8-.976 9.718.813"/>
    </g>
</svg>
