<svg xmlns="http://www.w3.org/2000/svg" width="29" height="28" viewBox="0 0 41 39">
    <path fill="#4990E2" fill-rule="evenodd" d="M33.34 18.903c-1.448-1.078-3.407-1.601-5.82-1.582l3.585-3.195-4.514 1.524c1.22-2.1 1.739-4.063 1.537-5.862 2.797-.29 5.462 1.86 6.164 2.487.188.927.713 4.32-.951 6.628m-5.79.168c1.863-.006 3.369.342 4.487 1.064-1.121.722-2.632 1.071-4.487 1.064.054-.35.107-.701.107-1.066a7 7 0 0 0-.106-1.062m6.737 8.925c-.703.626-3.37 2.773-6.163 2.486.202-1.8-.316-3.764-1.539-5.863l4.519 1.523-3.556-3.167.104.002c2.364 0 4.268-.539 5.693-1.597 1.645 2.296 1.13 5.688.942 6.616m-9.203-13.223a6.83 6.83 0 0 0-1.845-1.093c.927-1.64 1.99-2.779 3.178-3.392.067 1.348-.38 2.85-1.333 4.485m1.331 15.208c-1.188-.614-2.253-1.752-3.179-3.393a6.853 6.853 0 0 0 1.845-1.09c.952 1.634 1.402 3.135 1.334 4.483m-5.642 5.876c-.89-.302-4.068-1.55-5.218-4.136 1.647-.725 3.077-2.159 4.27-4.274l.95 4.705.947-4.702c1.193 2.114 2.622 3.548 4.27 4.272-1.151 2.587-4.329 3.833-5.219 4.135m-5.641-5.878c-.067-1.347.382-2.849 1.335-4.484a6.81 6.81 0 0 0 1.843 1.092c-.927 1.64-1.99 2.778-3.178 3.392m-1.709.501c-2.802.29-5.459-1.86-6.162-2.486-.188-.927-.702-4.322.944-6.619 1.425 1.06 3.328 1.598 5.694 1.598l.103-.001-3.556 3.172 4.515-1.526c-1.22 2.098-1.74 4.062-1.538 5.862m.578-9.285c-1.856.003-3.363-.343-4.48-1.061 1.12-.717 2.631-1.06 4.48-1.063a6.894 6.894 0 0 0-.107 1.062c0 .364.053.714.107 1.062M7.264 12.27c.7-.627 3.348-2.77 6.162-2.484-.201 1.8.317 3.763 1.537 5.86l-4.516-1.52 3.585 3.193c-2.426-.016-4.377.505-5.82 1.58-1.653-2.299-1.135-5.702-.948-6.629m7.871-1.982c1.189.612 2.251 1.751 3.178 3.392a6.84 6.84 0 0 0-1.844 1.092c-.953-1.635-1.4-3.137-1.334-4.484m10.78 9.845c0 2.856-2.304 5.178-5.138 5.178s-5.139-2.322-5.139-5.178c0-2.855 2.305-5.178 5.14-5.178 2.833 0 5.138 2.323 5.138 5.178m-5.138-15.72c.89.296 4.064 1.536 5.219 4.135-1.648.722-3.078 2.158-4.272 4.272l-.948-4.702-.949 4.703c-1.192-2.115-2.622-3.551-4.269-4.275 1.152-2.587 4.33-3.834 5.219-4.133m15.145 7.18l-.06-.234-.17-.17c-.156-.152-3.829-3.728-7.994-3.133-1.576-3.943-6.48-5.35-6.69-5.41l-.232-.063-.232.063c-.21.06-5.116 1.468-6.69 5.412-4.172-.588-7.837 2.976-7.993 3.129l-.171.17-.06.235c-.056.212-1.296 5.193 1.304 8.54-2.602 3.347-1.36 8.33-1.305 8.543l.06.234.172.17c.142.141 3.274 3.203 7.04 3.203.313 0 .632-.026.95-.071 1.577 3.944 6.482 5.353 6.692 5.411l.231.064.233-.064c.208-.058 5.113-1.467 6.69-5.41.32.046.637.072.951.072 3.767 0 6.9-3.062 7.043-3.204l.17-.169.06-.234c.056-.213 1.297-5.193-1.303-8.542 2.601-3.346 1.36-8.33 1.304-8.542"/>
</svg>
