<svg xmlns="http://www.w3.org/2000/svg" width="56" height="48" viewBox="0 0 56 48">
    <path fill="#4990E2" fill-rule="evenodd" d="M43.707 22.615c-1.844-1.363-4.337-2.023-7.408-1.999l4.562-4.036-5.745 1.925c1.553-2.651 2.213-5.131 1.956-7.404 3.56-.366 6.951 2.35 7.845 3.141.24 1.17.907 5.457-1.21 8.373m-7.369.212c2.371-.007 4.287.431 5.71 1.343-1.426.913-3.35 1.354-5.71 1.344.068-.442.136-.885.136-1.346 0-.458-.068-.901-.136-1.341M44.913 34.1c-.894.791-4.288 3.503-7.843 3.14.256-2.274-.403-4.754-1.959-7.405l5.75 1.923-4.525-4 .132.002c3.01 0 5.433-.68 7.246-2.017 2.094 2.9 1.439 7.185 1.2 8.357M33.2 17.397a8.708 8.708 0 0 0-2.35-1.38c1.18-2.073 2.533-3.51 4.046-4.285.086 1.703-.484 3.6-1.696 5.665m1.694 19.21c-1.513-.775-2.868-2.212-4.046-4.286a8.736 8.736 0 0 0 2.348-1.377c1.212 2.065 1.783 3.96 1.698 5.664m-7.18 7.421c-1.134-.38-5.179-1.956-6.643-5.223 2.097-.917 3.917-2.727 5.434-5.4l1.21 5.943 1.206-5.939c1.518 2.671 3.336 4.483 5.433 5.397-1.464 3.268-5.508 4.842-6.64 5.222m-7.181-7.425c-.085-1.7.487-3.597 1.7-5.663a8.68 8.68 0 0 0 2.345 1.38c-1.18 2.072-2.533 3.509-4.045 4.283m-2.175.634c-3.566.365-6.947-2.349-7.843-3.14-.238-1.172-.894-5.46 1.201-8.36 1.814 1.338 4.236 2.018 7.247 2.018l.132-.002-4.526 4.006 5.747-1.926c-1.554 2.65-2.215 5.13-1.958 7.404m.736-11.728c-2.363.003-4.28-.434-5.703-1.341 1.426-.905 3.35-1.34 5.703-1.342-.068.44-.136.883-.136 1.34 0 .461.068.903.136 1.343m-8.577-11.274c.892-.792 4.26-3.5 7.842-3.138-.256 2.273.404 4.753 1.956 7.402l-5.747-1.92 4.563 4.034c-3.087-.021-5.57.637-7.407 1.995-2.105-2.903-1.445-7.202-1.207-8.373m10.018-2.504c1.512.774 2.865 2.212 4.044 4.285a8.72 8.72 0 0 0-2.347 1.38c-1.212-2.066-1.782-3.963-1.697-5.665m13.72 12.436a6.547 6.547 0 0 1-6.54 6.541 6.547 6.547 0 0 1-6.54-6.541 6.547 6.547 0 0 1 6.54-6.54 6.547 6.547 0 0 1 6.54 6.54M27.717 4.31c1.132.374 5.173 1.94 6.642 5.223-2.097.912-3.917 2.726-5.436 5.396l-1.207-5.938-1.208 5.94c-1.517-2.672-3.337-4.486-5.433-5.4 1.467-3.268 5.512-4.843 6.642-5.221m19.276 9.07l-.076-.296-.218-.216c-.197-.19-4.872-4.708-10.173-3.956-2.006-4.981-8.248-6.759-8.514-6.834L27.716 2l-.295.08c-.267.074-6.51 1.854-8.516 6.836-5.308-.744-9.973 3.758-10.172 3.951l-.218.216-.076.296c-.07.268-1.65 6.56 1.66 10.788-3.312 4.227-1.732 10.523-1.66 10.79l.075.296.22.214c.18.18 4.167 4.048 8.96 4.048.397 0 .804-.034 1.21-.09 2.005 4.981 8.248 6.762 8.515 6.835l.295.08.296-.08c.265-.073 6.508-1.854 8.514-6.834.408.057.812.09 1.211.09 4.795 0 8.781-3.867 8.963-4.046l.218-.214.076-.296c.071-.268 1.65-6.56-1.66-10.789 3.312-4.227 1.732-10.522 1.661-10.79"/>
</svg>
