<svg xmlns="http://www.w3.org/2000/svg" width="48" height="48" viewBox="0 0 48 48">
    <g fill="none" fill-rule="evenodd">
        <circle cx="24" cy="24" r="24" fill="#F1F1F1"/>
        <path fill="#9B9B9B" d="M32.327 23.158c-.998-.737-2.347-1.095-4.01-1.082l2.47-2.184-3.11 1.042c.84-1.435 1.198-2.778 1.059-4.008 1.926-.198 3.762 1.272 4.246 1.7.13.634.491 2.954-.655 4.532m-3.988.115c1.283-.004 2.32.233 3.09.727-.772.494-1.813.733-3.09.728a4.71 4.71 0 0 0 .073-.73c0-.247-.037-.487-.073-.725m4.641 6.102c-.484.428-2.321 1.896-4.245 1.7.139-1.231-.219-2.574-1.06-4.009l3.112 1.041-2.45-2.165.072.001c1.629 0 2.94-.368 3.922-1.092 1.133 1.57.779 3.89.65 4.524m-6.34-9.041a4.713 4.713 0 0 0-1.272-.747c.639-1.122 1.37-1.9 2.19-2.32.046.922-.262 1.949-.918 3.067m.916 10.398c-.818-.42-1.552-1.198-2.19-2.32.466-.18.89-.436 1.271-.745.656 1.117.966 2.143.92 3.065M23.67 34.75c-.613-.206-2.803-1.059-3.595-2.827 1.135-.496 2.12-1.476 2.941-2.922l.655 3.216.652-3.215c.822 1.446 1.806 2.427 2.941 2.921-.792 1.77-2.981 2.621-3.594 2.827m-3.887-4.019c-.046-.92.264-1.947.92-3.065.382.31.804.566 1.27.746-.64 1.122-1.371 1.9-2.19 2.32m-1.177.343c-1.93.197-3.76-1.272-4.245-1.7-.13-.634-.484-2.955.65-4.526.982.725 2.293 1.093 3.923 1.093l.071-.001-2.45 2.168 3.11-1.042c-.84 1.434-1.198 2.777-1.059 4.008m.399-6.349c-1.28.002-2.318-.234-3.088-.726.773-.49 1.814-.725 3.088-.726a4.68 4.68 0 0 0-.074.726c0 .249.036.488.074.726m-4.643-6.102c.482-.428 2.306-1.894 4.245-1.698-.139 1.23.218 2.572 1.058 4.006l-3.11-1.04 2.47 2.184c-1.672-.011-3.016.345-4.01 1.08-1.139-1.571-.782-3.898-.653-4.532m5.422-1.355c.819.418 1.551 1.197 2.19 2.319a4.72 4.72 0 0 0-1.271.746c-.656-1.117-.965-2.144-.919-3.065m7.427 6.73a3.544 3.544 0 0 1-3.54 3.541 3.544 3.544 0 0 1-3.54-3.54 3.544 3.544 0 0 1 3.54-3.54 3.544 3.544 0 0 1 3.54 3.54m-3.54-10.748c.613.202 2.8 1.05 3.596 2.827-1.135.494-2.12 1.476-2.943 2.92l-.653-3.214L23.018 19c-.821-1.446-1.806-2.428-2.94-2.924.793-1.768 2.983-2.62 3.594-2.825m10.434 4.91L34.065 18l-.118-.117c-.107-.103-2.637-2.548-5.507-2.141-1.085-2.696-4.464-3.658-4.608-3.699l-.16-.043-.16.043c-.144.04-3.524 1.004-4.61 3.7-2.873-.402-5.398 2.035-5.505 2.14l-.118.116-.041.16c-.039.145-.893 3.551.898 5.84-1.792 2.287-.937 5.695-.899 5.84l.041.16.119.116c.098.097 2.256 2.19 4.85 2.19.215 0 .435-.017.655-.048 1.085 2.696 4.464 3.66 4.61 3.7l.159.043.16-.044c.143-.039 3.523-1.003 4.608-3.699.22.032.44.05.656.05 2.595 0 4.753-2.094 4.851-2.19l.118-.116.041-.16c.039-.146.893-3.551-.898-5.84 1.793-2.289.937-5.696.899-5.84"/>
    </g>
</svg>
